HIERARCHY
ROOT pelvis
{
	OFFSET 0.000000 0.000000 0.722426
	CHANNELS 6 Xposition Yposition Zposition Xrotation Yrotation Zrotation
	JOINT spine
	{
		OFFSET 0.000000 0.000000 0.000000
		CHANNELS 6 Xposition Yposition Zposition Xrotation Yrotation Zrotation
		JOINT spine.001
		{
			OFFSET 0.000000 -0.014128 0.269571
			CHANNELS 3 Xrotation Yrotation Zrotation
			JOINT neck
			{
				OFFSET 0.000000 0.032897 0.267929
				CHANNELS 6 Xposition Yposition Zposition Xrotation Yrotation Zrotation
				JOINT face
				{
					OFFSET 0.000000 0.003728 0.213601
					CHANNELS 6 Xposition Yposition Zposition Xrotation Yrotation Zrotation
					End Site
					{
						OFFSET -0.000000 -0.029791 -0.007726
					}
				}
			}
			JOINT shoulder.L
			{
				OFFSET 0.000000 0.032897 0.267929
				CHANNELS 6 Xposition Yposition Zposition Yrotation Xrotation Zrotation
				JOINT upper_arm.L
				{
					OFFSET 0.165472 0.000000 0.000000
					CHANNELS 6 Xposition Yposition Zposition Xrotation Yrotation Zrotation
					JOINT forearm.L
					{
						OFFSET 0.277966 0.000115 0.000956
						CHANNELS 6 Xposition Yposition Zposition Xrotation Yrotation Zrotation
						End Site
						{
							OFFSET 0.243847 -0.004151 -0.001318
						}
					}
				}
			}
			JOINT shoulder.R
			{
				OFFSET 0.000000 0.032897 0.267929
				CHANNELS 6 Xposition Yposition Zposition Yrotation Xrotation Zrotation
				JOINT upper_arm.R
				{
					OFFSET -0.165472 0.000000 0.000000
					CHANNELS 6 Xposition Yposition Zposition Xrotation Yrotation Zrotation
					JOINT forearm.R
					{
						OFFSET -0.272947 0.000115 0.000956
						CHANNELS 6 Xposition Yposition Zposition Xrotation Yrotation Zrotation
						End Site
						{
							OFFSET -0.239788 -0.004080 -0.001317
						}
					}
				}
			}
		}
	}
	JOINT pelvis.L
	{
		OFFSET 0.000000 0.000000 0.000000
		CHANNELS 6 Xposition Yposition Zposition Yrotation Xrotation Zrotation
		End Site
		{
			OFFSET 0.108032 0.000000 0.000000
		}
	}
	JOINT pelvis.R
	{
		OFFSET 0.000000 0.000000 0.000000
		CHANNELS 6 Xposition Yposition Zposition Yrotation Xrotation Zrotation
		End Site
		{
			OFFSET -0.108032 0.000000 0.000000
		}
	}
	JOINT thigh.L
	{
		OFFSET 0.108032 0.000000 0.000000
		CHANNELS 6 Xposition Yposition Zposition Xrotation Yrotation Zrotation
		JOINT shin.L
		{
			OFFSET 0.018006 0.000000 -0.343568
			CHANNELS 6 Xposition Yposition Zposition Xrotation Yrotation Zrotation
			JOINT foot.L
			{
				OFFSET 0.015897 0.000000 -0.303337
				CHANNELS 3 Xrotation Yrotation Zrotation
				End Site
				{
					OFFSET 0.015716 -0.160240 -0.067288
				}
			}
			JOINT heel.02.L
			{
				OFFSET 0.015897 0.000000 -0.303337
				CHANNELS 3 Xrotation Yrotation Zrotation
				End Site
				{
					OFFSET -0.075855 0.034374 -0.078711
				}
			}
		}
	}
	JOINT thigh.R
	{
		OFFSET -0.108032 0.000000 0.000000
		CHANNELS 6 Xposition Yposition Zposition Xrotation Yrotation Zrotation
		JOINT shin.R
		{
			OFFSET -0.017866 0.000000 -0.340909
			CHANNELS 6 Xposition Yposition Zposition Xrotation Yrotation Zrotation
			JOINT foot.R
			{
				OFFSET -0.016267 0.000000 -0.310392
				CHANNELS 3 Xrotation Yrotation Zrotation
				End Site
				{
					OFFSET -0.017674 -0.180207 -0.075672
				}
			}
			JOINT heel.02.R
			{
				OFFSET -0.016267 0.000000 -0.310392
				CHANNELS 3 Xrotation Yrotation Zrotation
				End Site
				{
					OFFSET 0.073097 0.034374 -0.074158
				}
			}
		}
	}
}
MOTION
Frames: 4
Frame Time: 0.041667
-0.057588 0.017478 0.719836 -0.000000 0.000000 -1.354738 0.000000 -0.000000 -0.000000 -7.316856 1.782680 0.208122 9.972422 0.622378 5.075731 -0.000000 0.032897 0.267929 5.577806 -2.427686 2.533980 0.000000 0.003728 0.213601 4.351924 -0.000000 -0.000000 0.000000 0.032897 0.267928 0.098291 0.000011 -0.012076 0.165472 -0.000000 0.000000 37.319027 75.966709 -46.751528 0.277966 0.000115 0.000956 1.149945 7.886477 -15.834340 0.000000 0.032897 0.267929 0.149721 0.000024 -0.018410 -0.165472 0.000000 -0.000000 25.520003 -76.473742 32.066294 -0.272947 0.000115 0.000956 2.773197 -14.852731 19.896056 0.000000 -0.000000 -0.000000 -0.776946 0.000001 0.000106 0.000000 -0.000000 -0.000000 -0.776978 0.000000 -0.000000 0.108023 -0.000000 0.001465 3.347695 2.135840 0.113184 0.018006 -0.000000 -0.343568 -1.972367 1.793584 -0.072561 -5.925809 -8.255253 15.585827 3.353481 -20.699800 -13.983619 -0.108022 -0.000000 -0.001465 -0.005366 -0.562886 0.000255 -0.017866 0.000000 -0.340909 6.760888 -1.949214 -0.239800 -2.504115 6.120444 -12.973793 -1.937202 24.238132 12.647864 
-0.054925 0.018492 0.717329 -0.000000 0.000000 -0.146991 0.000000 0.000000 -0.000000 -7.272456 1.596734 0.185784 9.986141 0.439936 3.585279 -0.000000 0.032897 0.267929 5.879985 -1.871810 1.985751 -0.000000 0.003728 0.213601 4.020661 0.000000 -0.000002 0.000000 0.032897 0.267929 0.339545 0.000123 -0.041753 0.165472 -0.000000 -0.000000 36.875375 75.982474 -46.206848 0.277966 0.000115 0.000956 1.106469 7.767677 -15.446948 0.000000 0.032897 0.267929 0.390936 0.000163 -0.048039 -0.165472 0.000000 -0.000000 26.450903 -76.234323 33.344806 -0.272947 0.000115 0.000956 2.734819 -14.778212 19.711742 0.000000 0.000000 -0.000000 -0.558683 0.000000 -0.000032 0.000000 0.000000 -0.000000 -0.558652 0.000000 -0.000000 0.108027 -0.000000 0.001053 2.498179 2.376939 0.079195 0.018006 -0.000000 -0.343568 -0.729905 1.763085 -0.027044 -5.847731 -7.613159 14.346698 2.392927 -22.334106 -14.230205 -0.108027 0.000000 -0.001053 0.096168 -0.121278 -0.004939 -0.017866 0.000000 -0.340909 6.946259 -3.109258 -0.175982 -4.992421 7.371295 -14.305748 -2.136851 23.991933 12.273816 
-0.052774 0.019517 0.715835 -0.000000 0.000000 0.755590 0.000000 0.000000 -0.000000 -7.192712 1.543186 0.178464 9.992381 0.325009 2.647813 -0.000000 0.032897 0.267929 6.011807 -1.572980 1.589333 -0.000000 0.003728 0.213601 3.694137 0.000000 -0.000002 -0.000000 0.032897 0.267929 0.431819 0.000202 -0.053065 0.165472 0.000000 0.000000 36.388673 76.016700 -45.596468 0.277966 0.000115 0.000956 1.085217 7.679835 -15.324412 -0.000000 0.032897 0.267929 0.483250 0.000251 -0.059384 -0.165472 0.000000 -0.000000 26.126662 -76.079906 33.030832 -0.272947 0.000115 0.000956 2.759749 -14.769707 19.918278 0.000000 0.000000 -0.000000 -0.449587 -0.000000 0.000092 0.000000 0.000000 -0.000000 -0.449587 -0.000000 0.000000 0.108029 -0.000000 0.000848 1.906659 2.616153 0.056458 0.018006 -0.000000 -0.343568 0.081938 1.649969 0.003117 -5.701057 -7.071588 13.334472 1.893732 -23.253480 -14.426922 -0.108029 -0.000000 -0.000848 0.202158 0.196317 -0.010940 -0.017866 -0.000000 -0.340909 6.969598 -3.905053 -0.128045 -6.541840 8.217907 -15.180070 -2.136047 23.621285 11.987843 
-0.051167 0.020255 0.715356 -0.000000 0.000000 1.318019 0.000000 -0.000000 -0.000000 -7.113202 1.660202 0.190831 9.994245 0.284677 2.319110 0.000000 0.032897 0.267929 6.038306 -1.501572 1.646674 0.000000 0.003728 0.213601 3.351010 -0.000000 -0.000002 0.000000 0.032898 0.267929 0.351487 0.000132 -0.043105 0.165472 -0.000000 -0.000000 35.759165 76.082782 -44.790711 0.277966 0.000115 0.000956 1.105815 7.744539 -15.492561 0.000000 0.032898 0.267929 0.402917 0.000173 -0.049450 -0.165472 0.000000 -0.000000 24.474890 -76.005710 31.023979 -0.272947 0.000115 0.000956 2.859177 -14.880665 20.515627 0.000000 -0.000000 -0.000000 -0.420914 -0.000000 0.000065 0.000000 -0.000000 -0.000000 -0.420883 0.000000 0.000000 0.108030 -0.000000 0.000794 1.649405 2.749219 0.046925 0.018006 0.000000 -0.343568 0.361939 1.631928 0.013824 -5.549107 -6.676773 12.612025 1.849469 -23.548855 -14.592954 -0.108029 -0.000000 -0.000794 0.322700 0.373954 -0.017963 -0.017866 0.000000 -0.340909 6.856314 -4.277788 -0.103579 -7.074736 8.595867 -15.632491 -1.994295 23.197052 11.793170 
